<?xml version="1.0" encoding="utf-8" ?>
<svg baseProfile="full" height="300mm" version="1.1" viewBox="0,0,200,300" width="200mm" xmlns="http://www.w3.org/2000/svg" xmlns:ev="http://www.w3.org/2001/xml-events" xmlns:xlink="http://www.w3.org/1999/xlink"><defs /><rect fill="#222222" height="300" width="200" x="0" y="0" /><text fill="#FFFFFF" style="font-size:12px; font-family:Arial; font-weight:bold;" x="10" y="20">Over 1km Runs</text><text fill="#FFFFFF" style="font-size:4px; font-family:Arial" x="10" y="280">ATHLETE</text><text fill="#FFFFFF" style="font-size:9px; font-family:Arial" x="10" y="290">Runner Evan</text><text fill="#FFFFFF" style="font-size:4px; font-family:Arial" x="65" y="280">SPECIAL TRACKS</text><rect fill="yellow" height="2.6" width="2.6" x="65" y="283" /><text fill="#FFFFFF" style="font-size:3px; font-family:Arial" x="70" y="285.5">Over 20.0 km</text><rect fill="red" height="2.6" width="2.6" x="65" y="287" /><text fill="#FFFFFF" style="font-size:3px; font-family:Arial" x="70" y="289.5">Over 40.0 km</text><text fill="#FFFFFF" style="font-size:4px; font-family:Arial" x="120" y="280">STATISTICS</text><text fill="#FFFFFF" style="font-size:3px; font-family:Arial" x="120" y="285">Number: 2</text><text fill="#FFFFFF" style="font-size:3px; font-family:Arial" x="120" y="290">Weekly: 2.0</text><text fill="#FFFFFF" style="font-size:3px; font-family:Arial" x="141" y="285">Total: 25.3 km</text><text fill="#FFFFFF" style="font-size:3px; font-family:Arial" x="141" y="290">Avg: 12.6 km</text><text fill="#FFFFFF" style="font-size:3px; font-family:Arial" x="167" y="285">Min: 5.0 km</text><text fill="#FFFFFF" style="font-size:3px; font-family:Arial" x="167" y="290">Max: 20.2 km</text><polyline fill="none" points="117.01199409901164,42.351224201585865 116.70516454614699,42.59739089131472 115.98922892275732,42.49892425831058 115.26192924188217,42.51123259057931 114.64827013609465,42.32660751295043 115.01191997650312,42.01889860336087 115.55739473720314,41.9450483819528 115.70512748492183,41.39117069567146 115.67103531234898,40.800365835413686 115.40966198954266,40.2834098933381 114.86418722884264,40.32033537008101 114.37553275574464,40.07416537331301 113.80732987995725,39.82799501900445 113.28458323434461,39.58182430715533 112.90956933633424,39.126407547679264 112.84138499124674,38.547903412996675 112.73910847358638,38.141718478902476 113.11412237165496,37.69860653144133 113.68232524732593,37.89554531777685 114.22780000796774,37.99401462513197 114.8187309987843,38.01863194303587 115.3755698169698,38.03094060064177 115.9324086352135,38.05555791319057 116.51197556842817,38.01863194303587 116.95517381146783,37.90785398433218 117.52337668719701,38.0063232845132 118.12567173544085,37.99401462513197 118.70523866865551,37.969397303662845 119.29616965941386,37.957088641574956 119.86437253508484,37.920162649970734 120.46666758344509,37.883236650319304 121.0121423440869,37.710915212286636 121.62580144987442,37.62475442755385 122.20536838308908,37.427815326533164 122.71675097121624,37.169332409175695 123.20540544437245,36.886231618744205 123.18267732934328,36.36926373769529 122.87584777647862,36.57851283189666 122.44401359092444,36.984701512526954 121.86444665770978,37.20625856437255 121.21669537940761,37.21856728095736 120.5916722160764,37.23087599668361 119.9666490527452,37.20625856437255 119.33026183198672,37.23087599668361 118.73933084122837,37.24318471150764 118.13703579298453,37.28011085059552 117.55746885976987,37.28011085059552 116.95517381146783,37.28011085059552 116.31878659070935,37.28011085059552 115.76194777246565,37.21856728095736 115.15965272422181,37.21856728095736 114.56872173346346,37.20625856437255 113.95506262767594,37.144714967915206 113.40958786697593,36.9477753090614 112.88684122136328,36.73852667080064 112.34136646060506,36.51696900748357 111.7617995273904,36.38157251510711 111.2049607092049,36.23386712728825 110.62539377599023,36.14770559161843 110.03446278523188,36.123088001972064 109.4662599095027,36.14770559161843 108.87532891874434,36.184631969430484 108.34121821558801,36.012308804231 107.77301533991704,36.012308804231 107.29572492430452,36.209249550127424 106.98889537138166,36.68929165953887 106.36387220810866,36.83699665041058 105.8524896199815,37.058553895316436 105.44338354939828,37.501667516247835 104.92063690378563,37.76014992673299 104.34106997057097,37.76014992673299 103.7615030372981,37.7970759532036 103.2046642191126,37.80938462691847 102.60236917081056,37.83400197161245 101.98871006502304,37.84631064264977 101.40914313180838,37.84631064264977 100.79548402607907,37.85861931278487 100.18182492029155,37.883236650319304 99.56816581450403,37.90785398433218 98.93177859368734,37.94477997861395 98.3408476029872,37.94477997861395 97.73855255468516,37.969397303662845 97.14762156398501,37.981705964848516 96.53396245813929,38.067866568104364 96.01121581252664,38.264804925362114 95.54528945439961,38.560212032170966 95.14754744141828,38.94177878306073 94.79526165843708,39.384887480249745 94.53388833563076,39.90184616284387 94.3066071853973,40.40649478447449 94.37479153042659,40.849599652399775 94.12478226516396,41.40347910838318 93.86340894229943,41.93274000858946 93.65885590703692,42.48661592518329 93.47703098680358,43.02818173811829 93.31793418159941,43.56974582080147 93.1133811463369,44.13592460277141 92.94292028364725,44.70210149369086 92.76109536341392,45.2805846248084 92.54517827066593,45.859065781900426 92.37471740791807,46.449853011305095 92.20425654517021,47.0283301784948 92.05652379750973,47.61911333318858 91.93151916487841,48.17297067104664 91.7951504747034,48.73913407957298 91.57923338189721,49.16990931954933 91.34058817412006,49.822224027942866 90.93148210359504,50.33915088234062 90.57919632067205,50.81915297887463 90.21554648020538,51.299153716507135 89.80644040968036,51.74223011441063 89.38597028161166,52.18530535453465 89.02232044120319,52.628379436864634 89.03368449868867,52.911453938882914 88.81776740594069,53.32991103277891 88.42002539290115,53.82221217409824 87.99955526489066,54.265281979271094 87.6245413669385,54.69604318001075 87.40862427413231,55.102188452729024 87.04497443366563,55.15141811668582 86.85178545594681,55.656021347953356 86.76087299583014,56.32061843467818 86.78360111085931,56.92367650019878 86.87451357097598,57.465196200981154 86.88587762846146,58.08055739851261 86.93133385851979,58.69591636327095 86.97679008863633,58.917445043989574 86.90860574354883,58.289779697021004 86.73814488080097,57.71134094793524 86.7154167657718,58.142093395479606 86.79496516834479,58.76975928900356 86.78360111085931,59.385115753117134 86.79496516834479,59.914320526630036 86.91996980103431,60.68966407341941 86.95406197354896,61.305013571938616 86.98815414606361,61.89574699026707 87.04497443366563,62.5110921132582 87.12452283629682,63.126435003985534 87.3404399290448,63.71716207895952 87.59044919442385,64.27096684342541 88.0450114950072,65.04629047620983 88.34047699032817,65.58778424496995 88.60185031313449,66.14158290253545 88.88595175102819,66.68307317515428 89.17005318886368,67.19994864126784 89.44279056921368,67.74143553576141 89.70416389207821,68.29522716294741 89.9200809848262,68.83671056163439 90.20418242266169,69.37819223216502 90.45419168804074,69.95659119854099 90.5451041480992,70.54729449070874 90.55646820558468,71.13799572639982 90.80647747090552,71.63024518518068 90.84056964347837,72.24555500043789 90.86329775850754,72.86086258436262 90.94284616113873,73.3408009509294 90.95421021862421,73.96841061275336 90.98830239119707,74.65754795983958 91.01103050616803,75.26054084276257 90.99966644868255,75.8266138441395 90.97693833365338,76.44190844309924 90.9655742761679,77.02028333199269 90.95421021862421,77.61096203506168 90.94284616113873,78.22625016461825 90.92011804610956,78.84153606348264 90.8973899310804,79.43220842779556 90.85193370102206,80.01057312595367 90.84056964347837,80.60124142178393 90.7496571833617,81.17960213629704 90.69283689581789,81.77026636376104 90.70420095330337,82.33631765302562 90.65874472324504,82.69317510431574 90.67010878073052,83.55455206806073 90.65874472324504,84.20673457578232 90.85193370102206,84.77277774001413 91.13603513885755,85.20346149183752 91.48832092178054,85.64644935373508 91.87469887727639,86.13865673339751 92.2838049478014,86.59394728897314 92.6360907307826,87.06154172371316 92.97701245622011,87.54143993592879 93.24974983651191,88.05825187810115 93.47703098680358,88.58736723664333 93.67021996458061,89.15339579456486 93.77249648218276,89.71942246535036 93.85204488475574,90.31005697946239 93.86340894229943,90.86377497042122 93.85204488475574,91.44210072184796 93.77249648218276,91.99581502091314 93.63612779200776,92.54952751428937 93.49975910183275,93.14015218360873 93.34066229662858,93.68155632574053 93.22702172154095,94.24756790138781 93.06792491627857,94.80127305191127 92.92019216861809,95.37958539261308 92.74973130592844,95.93328685198503 92.59063450066606,96.4992909222201 92.4883579830639,97.0529887307348 92.44290175300557,97.655902069062 92.39744552294724,98.25881326694798 92.24971277528675,98.84941807934956 92.31789712037425,99.42771663470194 92.24971277528675,99.9814048956614 92.18152843019925,100.5843078380567 92.04515973996604,101.13799232849851 91.89742699236376,101.6547628910921 91.63605366949923,102.23305189456732 91.35195223160554,102.79903497018677 91.06785079371184,103.31580047914758 90.77238529839087,103.82026053091977 90.49964791804086,104.38623831784935 90.23827459523454,104.90299899812089 89.96553721488453,105.43206187544274 89.70416389207821,105.97342683491297 89.37460622418439,106.49018268684449 89.07914072880521,106.97002599893312 88.79503929091152,107.46217157777573 88.52230191056151,108.00353006777004 88.28365670278436,108.53258328900847 88.01091932243435,109.04933135645115 87.90864280477399,109.60298825598147 87.7609100571135,110.36580147320637 87.77227411459899,111.01788102433784 87.73818194202613,111.63304811807757 87.65863353945315,112.2482129844866 87.63590542442398,112.85107239274657 87.6245413669385,113.42932328475581 87.57908513688017,114.06908793609182 87.54499296430731,114.72115327509528 87.51090079179266,115.29939780312998 87.49953673424898,115.87764036349836 87.46544456173433,116.48048689524876 87.419988331676,117.09563421292114 87.39726021664683,117.68617354297021 87.36316804413218,118.25210514197533 87.30634775653016,118.84264045341115 87.29498369904468,119.45777922082925 87.26089152647182,120.04831034285598 87.21543529635528,120.65114208016894 87.16997906635515,121.2416690557875 87.12452283629682,121.8198913979868 87.12452283629682,122.41041431290796 87.18134312389884,123.0009351761546 86.9995182036655,123.45612694133888 86.36313098284882,123.38231214329426 85.9540249122656,123.48073186690453 85.78356404957594,124.09585384820821 85.90856868226547,124.67406648096221 86.0222092574113,125.2522771468648 85.8858405671781,125.7197651835304 85.72674376203213,126.28567003407807 85.72674376203213,126.85157300073479 85.81765622209059,127.39286972780246 86.03357331495499,127.9341647313122 86.34040286776144,128.45085380868113 86.53359184553847,129.02905162861862 86.52222778805299,129.6195495001739 86.3063106952468,130.17313939207816 85.86311245220713,130.60370806178253 85.40855015162379,130.99736989127996 85.23808928887593,131.5263515393599 85.37445797905093,132.09223706177727 85.73810781957582,132.53510267860838 85.96538896986749,133.07638131048589 86.0222092574113,133.65456340028322 85.90856868226547,134.25734688994999 85.59037507185712,134.76171510660788 85.16990494384663,135.14306569191103 84.85171133338008,135.59822494830587 84.6244301830884,136.0902876387845 84.52215366548626,136.65615797258215 84.57897395308828,137.23432789056096 84.81761916086543,137.75098870731017 85.27218146144878,138.1692367902142 85.6699234744301,138.59978521283483 85.97675302735297,139.10414055020374 86.18130606255727,139.62079568633635 86.29494663776131,140.18665427267842 86.3063106952468,140.74020976362226 86.21539823518833,141.29376345289347 86.03357331495499,141.84731534055027 85.77219999209046,142.35166104746168 85.23808928887593,142.38856433311594 84.72670670074876,142.67148925740912 84.41987714788411,143.1635314830637 84.38578497536946,143.75398027496703 84.66988641320495,143.7662812696508 84.96535190858413,143.28654181705497 85.31763769150712,142.85600525884365 85.6812875319738,142.43776870158035 85.99948114238214,141.94572437640454 86.20403417764464,141.39217280904995 86.3063106952468,140.80171581810282 86.29494663776131,140.22355802814127 86.18130606255727,139.67000085553445 85.99948114238214,139.1410445405636 85.70401564700296,138.62438794694026 85.30627363396343,138.19383958657272 84.9085316209821,137.84940011345316 84.5562458380009,137.62797436950495 83.99940701981541,137.51726138939557 83.51075254677562,137.35734251311806 82.95391372853192,137.295835212979 82.37434679531725,137.3450410548685 82.18115781759843,137.02520282800833 82.2720702776569,136.5823489054019 82.3402546227444,136.27481078062556 82.46525925543392,135.6351296994835 82.59026388806524,135.03235109396337 82.4084389678319,134.56488866350264 82.06751724239439,134.12202833339688 81.87432826461736,133.62995994716766 81.61295494181104,133.1501918994909 81.12430046865484,132.92876003633137 80.8061068583047,132.52280087150575 80.48791324789636,132.07993522260222 80.06744311988587,131.7477852289303 79.5560605317005,131.82159639474412 78.94240142597118,131.68627589965763 78.35147043521283,131.64937029140128 77.8855440770858,131.8831056750787 77.62417075427948,132.3382736579806 77.52189423667733,132.85494935118186 77.52189423667733,133.34701998025412 77.43098177650245,133.88829602747865 77.64689886936685,134.4049670106615 77.60144263925031,134.92163642391097 77.16960845369613,135.24147860732046 77.01051164855016,135.72124075441388 76.78323049820028,136.13949382952705 76.7718664407148,135.6720344426576 76.7718664407148,135.16766892607848 76.96505541849183,134.8847315178864 77.44234583404614,134.7125085171865 77.21506468375446,134.23274352404405 76.73777426820016,134.42957035164 76.98778353346279,134.94623969017994 77.44234583404614,134.6756035657745 77.21506468375446,134.20814015458745 77.24915685632732,133.6914685733209 77.36279743147315,133.1501918994909 77.41961771901697,132.63351710347342 77.62417075427948,132.17834991092968 77.96509247971699,131.84620010954677 78.43101883784402,131.68627589965763 78.95376548345666,131.68627589965763 79.46514807158383,131.7969926763908 79.95380254474003,131.90770938097558 80.44245701783802,132.07993522260222 80.81747091584839,132.4120845674188 81.04475206614006,132.86725113424473 81.51067842415068,133.0640795425279 81.87432826461736,133.42083045179606 82.01069695485057,133.9375028554059 82.24934216268593,134.4049670106615 82.65844823315274,134.7248101659061 83.12437459122157,134.897033154135 82.87436532595893,134.83552496407356 82.6129920030362,135.13076407344488 82.49935142794857,135.6228281166259 82.41980302531738,136.10258918782347 82.3402546227444,136.4962382865342 82.24934216268593,136.90218796518457 82.19252187508391,137.283533750262 82.47662331297761,137.32043813567725 82.84027315332787,137.295835212979 83.15846676385263,137.3327395957167 83.56757283431944,137.4434526959376 83.91985861724243,137.51726138939557 84.2835084577091,137.61567293081316 84.61306612560293,137.64027580727998 84.59033801063197,137.35734251311806 84.49942555045709,136.8283790048008 84.5562458380009,136.28711231627676 84.76079887332162,135.75814547890332 85.09035654121544,135.30298665055307 85.49946261174046,134.90933478948136 85.82902027963428,134.42957035164 85.98811708483845,133.912899443254 86.03357331495499,133.39622696483275 85.89720462472178,132.86725113424473 85.63583130191546,132.42438638253952 85.3971860941383,132.1414444095135 85.2608174039051,131.7969926763908 85.23808928887593,131.4033326982899 85.37445797905093,131.04657755585504 85.6812875319738,130.78823715783074 86.0222092574113,130.54219831856608 86.41995127039263,129.98860962840263" stroke="yellow" stroke-linecap="round" stroke-linejoin="round" stroke-width="0.5"><title>2024-12-31 20.2km</title><desc>1735649689000</desc></polyline><polyline fill="none" points="154.0,237.9710339124431 153.46038543898612,238.2215138503234 152.7665952895768,238.4719937336631 151.68736616708338,238.8894600845524 151.37901498936117,239.39041950536193 151.22483940096572,239.89137870812556 150.8394004283473,241.310761930421 148.52676659543067,240.72631022759015 146.67665952863172,239.80788552295417 145.3661670233123,239.22343305597315 144.28693790128455,239.39041950536193 143.20770877972245,239.64089913398493 142.4368308354169,239.47391272109235 141.35760171338916,239.55740593059454 140.04710920760408,239.64089913398493 139.04496788000688,239.39041950536193 138.274089936167,238.8059668263886 137.58029978629202,238.05452723131748 137.1177730197087,237.21959377184976 136.6552462526597,236.3011662659119 136.3468950749375,235.3827380266739 135.88436830835417,234.46430905367015 135.3447537473403,233.4623857010156 135.11349036404863,232.46046147553716 134.72805139236152,231.29154877533438 134.3426124197431,230.5401042693411 133.8029978587292,229.62167142808903 133.26338329771534,228.87022583076032 132.33832976501435,229.03721378359478 131.25910064252093,229.3711896169698 130.6423982870765,228.45275584212504 130.6423982870765,227.45082725113025 130.56531049264595,226.44889778707875 130.25695931492373,225.61395590001484 129.94860813720152,224.6955191239831 129.71734475390986,223.77708161401097 129.56316916504875,222.85864337073872 129.17773019289598,222.02369887643727 128.56102783745155,221.18875377584482 128.17558886529878,220.10332423844375 127.32762312656268,219.26837774337037 126.47965738736093,218.76740955520654 125.7858672379516,217.93246208975324 125.24625267693773,216.93052433105186 124.8608137043193,216.01208061847137 124.55246252706274,215.0936361719505 124.32119914377108,214.25868603866547 124.39828693820164,213.17324995872332 124.6295503214933,212.25480324443197 125.01498929364607,211.25286053790478 125.55460385465994,210.16742162010632 126.01713062124327,209.0819816775038 126.17130621010438,207.99654071009718 125.7858672379516,206.99459429224953 125.01498929364607,206.15963827690575 124.01284796604887,205.40817734476877 123.01070663845167,204.99069883691845 122.16274089971557,204.57322017732076 121.77730192709714,203.65476659260457 122.08565310528502,202.56932050123578 122.47109207743779,201.48387338488828 122.85653104959056,200.56541733216727 123.24197002174333,199.64696054550586 123.70449678832665,198.8954953563516 124.24411134934053,197.9770372356288 124.8608137043193,197.22557095473167 125.7858672379516,197.3090672325343 126.55674518225715,197.8935410064878 127.40471092099324,198.31102209183155 128.40685224859044,198.56151067017345 129.25481798732653,198.8954953563516 130.10278372606263,199.31297607772285 130.87366167036816,199.73045664740494 131.6445396146737,199.98094491648953 132.4925053534098,200.23143313109176 133.4175588870421,200.3984252437367 134.41970021417364,200.64891336730216 135.57601713063195,200.81590541929472 136.73233404755592,200.89940143632703 137.81156316958368,200.81590541929472 138.73661670275033,200.73240939620882 139.73875803034753,200.56541733216727 140.58672376861796,200.3984252437367 141.04925053566694,199.81395274330862 141.12633832963184,199.0624876630609 141.04925053566694,198.06053345877444 140.89507494680583,197.05857838119846 140.74089935747907,196.14011879288591 141.04925053566694,195.221658470924 141.2805139189586,194.30319741507992 141.2805139189586,193.2177424939582 141.35760171338916,192.2992798371124 141.35760171338916,191.3808164462098 141.43468950735405,190.46235232189065 141.04925053566694,189.79437795223203 139.89293361874297,189.87787476950325 138.81370449671522,189.9613715808955 138.11991434684023,189.87787476950325 137.88865096401423,189.1264031942701 137.19486081367359,188.54192496289033 136.50107066426426,188.70891877362737 136.11563169164583,189.5438874635147 135.88436830835417,190.71284261037363 135.4218415422365,191.63130653474946 135.03640256961808,192.5497697253595 134.72805139236152,193.30123906274093 134.11134903645143,193.88571487431182 133.10920770885423,194.2197009191732 131.95289079239592,194.38669390504947 130.7965738759376,194.63718333852012 129.56316916504875,194.38669390504947 128.56102783745155,194.0527079087915 127.79014989268035,193.63522527733585 127.09635974327102,192.63326634268742 126.55674518225715,191.4643131485791 126.09421841567382,190.46235232189065 125.6316916490905,189.46039062191267 125.09207708807662,188.54192496289033 124.16702355490997,187.95744643424405 123.01070663845167,187.70695554523263 122.16274089971557,187.45646460162243 121.31477516097948,187.12247659207787 120.38972162734717,186.78848848532652 119.46466809418052,186.45450028171763 118.61670235544443,186.12051198107656 117.69164882227778,186.12051198107656 116.68950749468058,186.2875061435625 115.68736616708338,186.70499144366477 114.53104925062507,187.12247659207787 113.52890792302787,187.45646460162243 112.52676659543067,187.79045251442585 111.44753747340292,188.12444032990607 110.52248394023627,188.29143420117907 109.59743040706962,188.62542187137296 108.51820128504187,189.04290632228367 107.51605995744467,189.376893773966 106.74518201313913,189.87787476950325 105.82012847997248,190.62934585363837 105.04925053566694,191.4643131485791 104.20128479646519,191.96529323456343 103.19914346886799,192.466273101978 101.96573875844479,192.2157831953955 101.19486081367359,190.96333284431603 100.80942184152082,189.79437795223203 100.42398286983371,188.62542187137296 99.96145610278472,187.62345857016044 99.4989293362014,186.70499144366477 98.80513918632641,185.87002069177106 97.72591006429866,185.7865235832287 96.56959314784035,186.2040090652299 95.72162740910426,186.8719855211093 94.87366167036816,187.28947060904466 93.94860813720152,187.62345857016044 93.02355460403487,188.12444032990607 92.02141327643767,188.54192496289033 90.94218415440992,188.54192496289033 90.17130621010438,187.95744643424405 89.16916488250718,187.87394947727444 88.08993576047942,187.87394947727444 87.08779443288222,187.95744643424405 86.00856531085446,188.04094338498544 84.85224839439616,188.12444032990607 83.69593147747219,188.12444032990607 82.61670235544443,188.12444032990607 81.53747323388234,188.20793726854026 80.84368308354169,188.54192496289033 80.84368308354169,189.46039062191267 80.1498929336667,190.29535876587033 79.30192719493061,190.71284261037363 78.37687366176397,191.21382302371785 77.60599571745843,191.0468295768951 76.989293362014,190.5458490906749 76.1413276232779,190.12836518551921 75.21627409011126,189.62738429917954 74.29122055694461,189.1264031942701 73.28907922934741,188.54192496289033 72.67237687390298,187.87394947727444 72.82655246276408,187.0389795745723 72.05567451845855,187.28947060904466 71.20770877972245,187.12247659207787 70.2826552465558,186.62149439560017 69.3576017129235,186.0370148907532 68.35546038579196,185.45253508840688 67.2762312637642,185.03504933341173 66.35117773059756,184.45056902163196 65.58029978582636,183.69909389846725 64.73233404709026,183.19811021030182 63.88436830835417,182.7806236364413 63.036402569618076,182.1126448031282 62.26552462531254,181.52816300548147 61.34047109261155,181.02717837080127 60.2612419705838,180.6096910086344 59.259100642520934,180.192203494953 58.17987152049318,179.85821337462403 57.33190578175709,179.5242231572047 56.40685224859044,179.27373043075204 55.48179871542379,178.93974004348274 54.556745182257146,178.6057495594141 53.554603854659945,178.52225192339392 52.398286937735975,178.6057495594141 51.47323340456933,178.6892471894389 50.47109207697213,178.93974004348274 49.39186295494437,178.85624243167695 48.235546038951725,178.77274481364293 47.15631691645831,178.85624243167695 46.69379015034065,179.27373043075204 46.38543897261843,180.192203494953 46.38543897261843,181.11067582509713 46.308351177722216,182.1126448031282 46.38543897261843,183.19811021030182 46.308351177722216,184.45056902163196 46.23126338329166,185.53603222122183 46.23126338329166,186.53799734188942 46.23126338329166,187.53996158897644 46.308351177722216,188.62542187137296 46.077087794430554,189.79437795223203 46.077087794430554,190.7963393610553 46.0,191.88179656857392 46.15417558932677,192.88375615817495 46.23126338329166,193.71872181567596 46.23126338329166,194.47019038908184 46.38543897261843,195.38865131139755 46.38543897261843,196.2236151495017 46.38543897261843,197.14207467099186 46.308351177722216,198.14402967586648 46.308351177722216,199.0624876630609 46.46252676658332,200.0644409939996 46.61670235591009,201.06639345176518 46.61670235591009,201.98484910430852 46.69379015034065,202.9033040230861 46.69379015034065,203.82175820798147 47.0021413275972,204.6567159211845 47.77301927190274,205.074194550456 48.54389721667394,205.074194550456 49.46895074984059,204.99069883691845 50.31691648857668,204.99069883691845 51.16488222731277,204.82370739121689 52.012847965583205,204.90720311697805 52.8608137043193,204.90720311697805 53.78586723795161,204.90720311697805 54.71092077111825,204.82370739121689 55.6359743042849,204.7402116593439 56.48394004302099,204.6567159211845 57.33190578175709,204.6567159211845 58.17987152049318,204.7402116593439 59.10492505365983,204.6567159211845 60.029978587292135,204.57322017732076 60.95503211999312,204.4897244271706 61.80299785872921,204.57322017732076 62.72805139189586,204.57322017732076 63.65310492506251,204.4897244271706 64.57815845822915,204.4897244271706 65.50321199186146,204.4897244271706 66.35117773059756,204.4062286708504 67.2762312637642,204.4062286708504 68.20128479693085,204.57322017732076 68.58672376908362,205.49167302809656 68.43254818022251,206.4936207559076 68.43254818022251,207.41207207244588 68.5096359741874,208.3305226553348 68.5096359741874,209.16547709400766 68.43254818022251,210.0004309262731 68.43254818022251,210.9188794415095 68.5096359741874,211.8373272229801 68.97216274123639,212.67227911471855 69.74304068554193,213.17324995872332 70.59100642427802,213.50723040022422 71.59314775187522,213.34024019149365 72.51820128504187,213.2567450783099 73.52034261217341,213.00625970162218 74.36830835137516,212.7557742704521 75.21627409011126,212.588783952815 76.1413276232779,212.42179361078888 77.06638115644455,212.17130805237684 77.9914346896112,212.00431764981477 78.83940042834729,211.75383200036595 79.76445396151394,211.50334629626013 80.61241970025003,211.3363557967241 81.38329764455557,211.0023747246596 82.23126338375732,210.66839355562115 83.15631691645831,210.16742162010632 84.0042826551944,209.74994484038325 84.77516059949994,209.24897250463255 85.54603854380548,208.83149539137958 86.39400428300723,208.49751359166112 87.16488222684711,207.99654071009718 87.93576017115265,207.74605418747524 88.86081370478496,207.32857652864186 89.70877944352105,206.24313390580937 90.71092077111825,205.40817734476877 91.32762312609702,205.074194550456 92.17558886529878,204.7402116593439 93.02355460403487,204.4897244271706 93.94860813720152,204.23923714039847 94.71948608150706,203.82175820798147 95.56745182024315,203.5712707756902 96.41541755897924,203.3207832890912 97.34047109214589,203.07029574766057 98.2655246257782,202.81980815168936 99.11349036404863,202.6528163907351 100.03854389768094,202.48582460550824 100.96359743038192,202.318832796067 101.88865096354857,202.23533688217867 102.89079229114577,202.23533688217867 103.81584582431242,201.98484910430852 104.74089935747907,201.73436127207242 105.58886509621516,201.6508653156343 106.5139186293818,201.48387338488828 107.43897216301411,201.48387338488828 108.44111349061131,201.48387338488828 109.28907922934741,201.56736935320077 110.2141327620484,201.6508653156343 111.1391862956807,201.73436127207242 111.9871520344168,201.98484910430852 112.91220556758344,202.06834503635764 113.83725910075009,202.15184096229495 114.7623126343824,202.318832796067 115.61027837311849,202.48582460550824 116.53533190581948,202.73631227418082 117.46038543898612,203.07029574766057 118.46252676704898,203.40427912393352 119.38758030021563,203.82175820798147 120.31263383338228,204.15574136615032 121.31477516097948,204.4897244271706 122.31691648811102,204.99069883691845 123.31905781617388,205.40817734476877 124.24411134934053,205.82565570087172 125.09207708807662,206.4936207559076 125.16916488204151,207.74605418747524 124.7837259103544,208.83149539137958 124.55246252706274,209.83344020828372 124.39828693820164,210.75188885687385 124.08993576001376,211.58684153715149 123.7815845827572,212.50528878479963 123.7815845827572,213.42373529903125 123.8586723767221,214.25868603866547 123.93576017161831,215.17713115201332 124.08993576001376,215.92858569900272 124.47537473263219,216.76353461958934 124.8608137043193,217.5149881297839 125.47751606022939,218.1829463930335 126.09421841567382,218.76740955520654 126.94218415440992,219.35187242005486 127.79014989268035,219.93633498810232 128.40685224859044,220.68778642441612 128.86937901517376,221.60622640198562 129.17773019289598,222.69165452034213 129.40899357618764,223.69358725869097 129.4860813706182,224.5285305402358 129.6402569594793,225.61395590001484 130.02569593163207,226.6158860916039 130.25695931492373,227.45082725113025 130.7965738759376,228.20227377611445 131.6445396146737,228.70323785342043 132.72376873670146,228.70323785342043 133.4175588870421,229.3711896169698 133.72591006429866,230.5401042693411 134.11134903645143,231.625523953815 134.4967880086042,232.6274489070056 134.80513918632641,233.6293729871977 135.03640256961808,234.6312961942749 135.4989293362014,235.4662315332098 135.88436830835417,236.21767282002838 136.42398286936805,236.96911361569073 137.1177730197087,237.72055392013863 138.11991434684023,238.13802054378903 139.1220556749031,238.30500715097878 140.20128479693085,238.55548701580847 141.2805139189586,238.63898029224947 142.2826552465558,238.55548701580847 143.20770877972245,238.38850044528954 144.28693790128455,238.30500715097878 145.2890792293474,238.2215138503234 146.2912205569446,238.38850044528954 147.1391862956807,238.8059668263886 147.75588865112513,239.05644658236997" stroke="#4DD2FF" stroke-linecap="round" stroke-linejoin="round" stroke-width="0.5"><title>2024-12-30 5.0km</title><desc>1735563800000</desc></polyline></svg>