<?xml version="1.0" encoding="utf-8" ?>
<svg baseProfile="full" height="200mm" version="1.1" viewBox="0,0,200,200" width="200mm" xmlns="http://www.w3.org/2000/svg" xmlns:ev="http://www.w3.org/2001/xml-events" xmlns:xlink="http://www.w3.org/1999/xlink"><defs /><rect fill="#1a1a1a" height="200" width="200" x="0" y="0" /><text alignment-baseline="middle" fill="#e1ed5e" style="dominant-baseline: central; font-size:9.0px; font-family:Arial;" text-anchor="middle" x="100.0" y="100.0">2024</text><line stroke="#e1ed5e" stroke-width="0.3" x1="100.0" x2="100.0" y1="15.0" y2="10.0" /><path d="M 100.0 14.0 a86.0,86.0 0 0,1 42.35913384403234,11.155469271406648" fill="none" id="id1" stroke="none" /><text fill="#e1ed5e" style="font-size:6.75px; font-family:Arial;" text-anchor="middle"><textPath startOffset="22.145653131862478" xlink:href="#id1">January</textPath></text><line stroke="#e1ed5e" stroke-width="0.3" x1="143.13028292997686" x2="145.6673583964461" y1="26.7553504044142" y2="22.446841604673864" /><path d="M 143.63769802327073 25.89364864446614 a86.0,86.0 0 0,1 29.32050498858742,28.57503671076993" fill="none" id="id2" stroke="none" /><text fill="#e1ed5e" style="font-size:6.75px; font-family:Arial;" text-anchor="middle"><textPath startOffset="20.669276256404974" xlink:href="#id2">February</textPath></text><line stroke="#e1ed5e" stroke-width="0.3" x1="172.87174338648825" x2="177.1583165268699" y1="56.24261187166439" y2="53.66864786411523" /><path d="M 173.72905801456457 55.72781907015455 a86.0,86.0 0 0,1 12.242430191666344,42.057860355516425" fill="none" id="id3" stroke="none" /><text fill="#e1ed5e" style="font-size:6.75px; font-family:Arial;" text-anchor="middle"><textPath startOffset="22.145653131862474" xlink:href="#id3">March</textPath></text><line stroke="#e1ed5e" stroke-width="0.3" x1="184.99686870605535" x2="189.99668451229388" y1="99.2704041080226" y2="99.22748670261217" /><path d="M 185.99683186730306 99.26182062694052 a86.0,86.0 0 0,1 -10.086455211305974,41.156179273409016" fill="none" id="id4" stroke="none" /><text fill="#e1ed5e" style="font-size:6.75px; font-family:Arial;" text-anchor="middle"><textPath startOffset="21.40746469413373" xlink:href="#id4">April</textPath></text><line stroke="#e1ed5e" stroke-width="0.3" x1="174.33088141563837" x2="178.70328620479359" y1="141.23008692659167" y2="143.65538615756765" /><path d="M 175.20536237346943 141.71514677278685 a86.0,86.0 0 0,1 -30.301960400862466,31.631185727798858" fill="none" id="id5" stroke="none" /><text fill="#e1ed5e" style="font-size:6.75px; font-family:Arial;" text-anchor="middle"><textPath startOffset="22.145653131862474" xlink:href="#id5">May</textPath></text><line stroke="#e1ed5e" stroke-width="0.3" x1="143.1302829299769" x2="145.66735839644613" y1="173.24464959558577" y2="177.55315839532614" /><path d="M 143.63769802327073 174.10635135553383 a86.0,86.0 0 0,1 -40.68552437913181,11.842963189579606" fill="none" id="id6" stroke="none" /><text fill="#e1ed5e" style="font-size:6.75px; font-family:Arial;" text-anchor="middle"><textPath startOffset="21.407464694133747" xlink:href="#id6">June</textPath></text><line stroke="#e1ed5e" stroke-width="0.3" x1="101.45913802915013" x2="101.54496967792366" y1="184.9874750549273" y2="189.98673829345242" /><path d="M 101.47630435890484 185.9873277026323 a86.0,86.0 0 0,1 -42.54439059252881,-10.42667462771756" fill="none" id="id7" stroke="none" /><text fill="#e1ed5e" style="font-size:6.75px; font-family:Arial;" text-anchor="middle"><textPath startOffset="22.145653131862474" xlink:href="#id7">July</textPath></text><line stroke="#e1ed5e" stroke-width="0.3" x1="58.13341422392154" x2="55.67067388415222" y1="173.97424548756322" y2="178.32567169271397" /><path d="M 57.64086615596768 174.84453072859336 a86.0,86.0 0 0,1 -31.369924170532247,-30.572349798747897" fill="none" id="id8" stroke="none" /><text fill="#e1ed5e" style="font-size:6.75px; font-family:Arial;" text-anchor="middle"><textPath startOffset="22.145653131862474" xlink:href="#id8">August</textPath></text><path d="M 82.18462484594161 111.11811171558189 l -5.161917827153571 3.2214184979356673 a27.08464730227874,27.08464730227874 0 0,0 -0.24277134731977904,-0.39654875087180275 l 5.216457138928756 -3.1323326309393074" fill="#ff3a05" stroke="none" /><path d="M 81.99639281039703 110.81064883170644 l -5.209084658001229 3.1279056679709107 a27.076047797865677,27.076047797865677 0 0,0 -0.2358533794291704,-0.4005306007445111 l 5.26201174756017 -3.038023898932841" fill="#ff3905" stroke="none" /><line stroke="#e1ed5e" stroke-width="0.3" x1="26.387840678322732" x2="22.057713659400548" y1="142.50000000000003" y2="145.00000000000006" /><path d="M 25.521815274538298 143.00000000000003 a86.0,86.0 0 0,1 -11.493303480769221,-40.785679425670985" fill="none" id="id9" stroke="none" /><text fill="#e1ed5e" style="font-size:6.75px; font-family:Arial;" text-anchor="middle"><textPath startOffset="21.40746469413373" xlink:href="#id9">September</textPath></text><path d="M 81.81346652052679 110.50000000000001 l -17.790749175165143 10.27149382536672 a41.54298765073342,41.54298765073342 0 0,0 -0.35126897733805573,-0.6206586250130195 l 17.964451517524576 -9.96457843025458" fill="#fffb17" stroke="none" /><path d="M 81.29705330413844 109.54985784667822 l -6.97522379494417 3.5615989701357442 a28.831904890486562,28.831904890486562 0 0,0 -0.2212918539295033,-0.44273194539516286 l 7.03533556208541 -3.4413351685768285" fill="#ff5207" stroke="none" /><path d="M 81.1358732173502 109.22738970284198 l -8.423696305497792 4.120451979823891 a30.37746148833957,30.37746148833957 0 0,0 -0.22511252848140956,-0.4703986045241327 l 8.493188091939114 -3.975240873234654" fill="#ff6809" stroke="none" /><path d="M 80.68587082218212 108.24405325689762 l -17.1974203378489 7.340556120402759 a39.698530167728194,39.698530167728194 0 0,0 -0.26215048305488375,-0.629065726799262 l 17.32089666544027 -7.044257884162216" fill="#ffe415" stroke="none" /><path d="M 80.5471966667186 107.91128576633889 l -4.844512343051042 1.9702209952876621 a26.229825103408928,26.229825103408928 0 0,0 -0.1660489383168569,-0.4185517957532581 l 4.877619956334023 -1.8867681823208386" fill="#ff2d04" stroke="none" /><path d="M 80.41425534168474 107.57618678355246 l -8.151761228192465 3.1532763628411145 a29.74038688742749,29.74038688742749 0 0,0 -0.18009831731277473,-0.4777321836394008 l 8.204690229319676 -3.0128758990075686" fill="#ff5f08" stroke="none" /><path d="M 80.16572619554312 106.89939002012753 l -7.731740464185337 2.689500685668144 a29.18616054959407,29.18616054959407 0 0,0 -0.16054414437178874,-0.4746202360102218 l 7.776770030129493 -2.5563787751837608" fill="#ff5708" stroke="none" /><path d="M 79.94057633289273 106.21446072829308 l -22.336779194383904 6.919991292056422 a44.384139587780396,44.384139587780396 0 0,0 -0.21922315673891266,-0.7297225903162332 l 22.452278671126447 -6.535531098149465" fill="#e0ff1b" stroke="none" /><path d="M 79.83685265289637 105.86919833188381 l -2.065689517202437 0.601292112776033 a23.151424036857147,23.151424036857147 0 0,0 -0.10779910252118194,-0.3825409852929119 l 2.0757071117981942 -0.5657432035801254" fill="#ff0000" stroke="none" /><path d="M 79.64726062577567 105.17358676015961 l -11.296194508901287 2.8714484707376955 a32.655437645281,32.655437645281 0 0,0 -0.13344018462069074,-0.5444814898270732 l 11.343822220038271 -2.677111156302523" fill="#ff870c" stroke="none" /><path d="M 79.56144815229197 104.8234425847677 l -4.771178085701027 1.1259850369810573 a25.902242612211165,25.902242612211165 0 0,0 -0.0984151248453633,-0.43363519887785495 l 4.789804072104056 -1.0439155041641761" fill="#ff2803" stroke="none" /><path d="M 79.48165901384964 104.47187691870673 l -4.652537873812747 1.0139989751294038 a25.76175415039726,25.76175415039726 0 0,0 -0.09046336782048396,-0.43289996312881074 l 4.669258952457598 -0.9339825607151839" fill="#ff2603" stroke="none" /><path d="M 79.34024301695615 103.76489593502545 l -16.903361271309972 3.0803555042226587 a38.181740665625725,38.181740665625725 0 0,0 -0.11197283177889232,-0.6458295380785422 l 16.9537489205811 -2.7897329332235237" fill="#ffd113" stroke="none" /><path d="M 79.13060592940153 102.33845913500099 l -7.09032115411017 0.7944852743127178 a28.134694171407904,28.134694171407904 0 0,0 -0.04966122862829074,-0.4804273379437925 l 7.1029147752201265 -0.6726534140859939" fill="#ff4906" stroke="none" /><path d="M 79.0935383218832 101.97986365728391 l -15.604439123314208 1.4777566088520413 a36.67425548305963,36.67425548305963 0 0,0 -0.0539746846304233,-0.6272676510801306 l 15.627507430642371 -1.2096679103962487" fill="#ffbd11" stroke="none" /><line stroke="#e1ed5e" stroke-width="0.3" x1="15.003131293944662" x2="10.003315487706104" y1="100.72959589197737" y2="100.7725132973878" /><path d="M 14.003168132696942 100.73817937305945 a86.0,86.0 0 0,1 10.791469493833604,-42.45332614584628" fill="none" id="id10" stroke="none" /><text fill="#e1ed5e" style="font-size:6.75px; font-family:Arial;" text-anchor="middle"><textPath startOffset="22.145653131862435" xlink:href="#id10">October</textPath></text><path d="M 79.01933749520258 99.09900007780938 l -26.444561432799933 -1.1356432518691781 a47.468934904310856,47.468934904310856 0 0,0 0.04194990390540661,-0.8138169287579351 l 26.421169939437956 1.5894319740038252" fill="#bcff1f" stroke="none" /><path d="M 79.13060592940154 97.66154086499901 l -7.796760275345439 -0.8736432513381329 a28.845554366761686,28.845554366761686 0 0,0 0.05936403240070259,-0.49161934764346626 l 7.780614156685068 1.0073562759050354" fill="#ff5307" stroke="none" /><path d="M 79.17382384314186 97.30363454192245 l -7.762158040144824 -1.004966762114575 a28.826944207871932,28.826944207871932 0 0,0 0.06775084607693188,-0.49021137216644883 l 7.743762677512684 1.138066442481091" fill="#ff5207" stroke="none" /><path d="M 79.34024301695615 96.23510406497455 l -4.617286659902493 -0.841423439345459 a25.69332819052679,25.69332819052679 0 0,0 0.08279822772686991,-0.4332353146677508 l 4.602162139893463 0.9205613190465243" fill="#ff2503" stroke="none" /><path d="M 79.407916724674 95.88100663000787 l -18.348603078425057 -3.6702344982845614 a39.712077816265825,39.712077816265825 0 0,0 0.1394504536234439,-0.6673209022206603 l 18.28289491397725 3.9846718517906305" fill="#ffe415" stroke="none" /><path d="M 79.56144815229197 95.17655741523228 l -15.218031434189516 -3.591413981917453 a36.636071601316374,36.636071601316374 0 0,0 0.14970628203976008,-0.6108527181162324 l 15.154137625633458 3.852122524641803" fill="#ffbd11" stroke="none" /><path d="M 79.73907114497095 94.47779374421319 l -18.30353654467505 -4.988710277462852 a39.97120661093328,39.97120661093328 0 0,0 0.18611642171502338,-0.6604615221918735 l 18.215201630885446 5.302179723557739" fill="#ffe715" stroke="none" /><path d="M 79.94057633289273 93.78553927170692 l -3.042509501576398 -0.9425772209003696 a24.185171248856633,24.185171248856633 0 0,0 0.12626419637352881,-0.39552079677780977 l 3.025880589425612 0.994667051369571" fill="#ff0f01" stroke="none" /><path d="M 80.05021161711548 93.44210830539832 l -9.145951706435088 -3.006455987589106 a30.627419707364652,30.627419707364652 0 0,0 0.1684720702772604,-0.4980577402496234 l 9.092994214585463 3.163015402312891" fill="#ff6c09" stroke="none" /><path d="M 80.41425534168474 92.42381321644754 l -4.772402300861259 -1.8460677328512936 a26.117009849075977,26.117009849075977 0 0,0 0.16533475691708363,-0.4167515920880095 l 4.740008868978044 1.927720342152886" fill="#ff2c04" stroke="none" /><path d="M 80.83023694016515 91.42560881287825 l -7.548583653837842 -3.3763854542538114 a29.269286179271134,29.269286179271134 0 0,0 0.20908798235686396,-0.4568949758227106 l 7.489511206625932 3.5054694122911934" fill="#ff5908" stroke="none" /><path d="M 81.1358732173502 90.77261029715801 l -7.277795874638699 -3.5599346572878505 a29.101817546518017,29.101817546518017 0 0,0 0.22336349894494123,-0.4468766231660136 l 7.215612462482014 3.6843431366176342" fill="#ff5608" stroke="none" /><path d="M 81.29705330413844 90.45014215332179 l -4.204705672431832 -2.1469526760577557 a25.72111804396077,25.72111804396077 0 0,0 0.20416680166053985,-0.39151676258595436 l 4.167230801796352 2.2188156817481968" fill="#ff2603" stroke="none" /><path d="M 81.46374523516351 90.13048839642627 l -9.66178267335349 -5.144355071487443 a31.945977961272,31.945977961272 0 0,0 0.2618880317675474,-0.4818444813885348 l 9.572049291970593 5.3094543863505965" fill="#ff7e0b" stroke="none" /><path d="M 81.63589988554816 89.8137432299009 l -2.7565464818073986 -1.5290098663917913 a24.152208698339656,24.152208698339656 0 0,0 0.20422030599360927,-0.36083771267893183 l 2.7298928107924203 1.5761043491698286" fill="#ff0f01" stroke="none" /><line stroke="#e1ed5e" stroke-width="0.3" x1="26.387840678322718" x2="22.05771365940052" y1="57.49999999999999" y2="54.99999999999999" /><path d="M 25.521815274538284 56.99999999999999 a86.0,86.0 0 0,1 29.574782752854787,-30.34633250058573" fill="none" id="id11" stroke="none" /><text fill="#e1ed5e" style="font-size:6.75px; font-family:Arial;" text-anchor="middle"><textPath startOffset="21.40746469413373" xlink:href="#id11">November</textPath></text><path d="M 81.99639281039701 89.18935116829357 l -20.06967488433795 -12.051263119448253 a44.40992936207196,44.40992936207196 0 0,0 0.3980653048673817,-0.6502097597318085 l 19.859841615015174 12.394009995304604" fill="#e0ff1b" stroke="none" /><path d="M 82.78059297857968 87.97951657250589 l -3.890057913697639 -2.7155625408834703 a25.744136431993827,25.744136431993827 0 0,0 0.2560743524775229,-0.3602006458293762 l 3.8428684626901437 2.7819404134223666" fill="#ff2603" stroke="none" /><path d="M 83.64595745247003 86.82634096563983 l -25.747856238127447 -20.740650390324706 a54.06246632471563,54.06246632471563 0 0,0 0.5883880303961054,-0.7177377265277516 l 25.38802138849271 21.179590398550953" fill="#72ff27" stroke="none" /><path d="M 85.34317274990677 84.96080404539775 l -12.14183316859797 -12.458590468102328 a38.39656831521539,38.39656831521539 0 0,0 0.47598491337158055,-0.45598277979563206 l 11.92617576936109 12.665185378203528" fill="#ffd313" stroke="none" /><path d="M 86.13680546590413 84.22622945171909 l -7.577011684481446 -8.621248404089316 a32.477675292139125,32.477675292139125 0 0,0 0.4219322032997464,-0.3644549879284989 l 7.427900001418852 8.750047524482525" fill="#ff850c" stroke="none" /><path d="M 86.68645165197937 83.75963576809568 l -5.834182843856858 -7.116754444644309 a30.20249331871087,30.20249331871087 0 0,0 0.4037774634561391,-0.32525454265333015 l 5.711154610045473 7.215857281091038" fill="#ff6609" stroke="none" /><path d="M 87.25179093698888 83.31218511350988 l -12.322947272968115 -16.131133552236964 a41.29947041605907,41.29947041605907 0 0,0 0.5670751835256876,-0.4255437896242133 l 12.044219100531675 16.34029636912518" fill="#fff817" stroke="none" /><path d="M 87.83215693770416 82.88440491214696 l -4.533127995864409 -6.376412225355142 a28.82354665701868,28.82354665701868 0 0,0 0.40573247055222506,-0.2832327752170769 l 4.423000434138419 6.453289816377345" fill="#ff5207" stroke="none" /><line stroke="#e1ed5e" stroke-width="0.3" x1="56.869717070023135" x2="54.33264160355391" y1="26.7553504044142" y2="22.446841604673864" /><path d="M 56.362301976729285 25.89364864446614 a86.0,86.0 0 0,1 42.16139366436587,-11.88097634709845" fill="none" id="id12" stroke="none" /><text fill="#e1ed5e" style="font-size:6.75px; font-family:Arial;" text-anchor="middle"><textPath startOffset="22.145653131862474" xlink:href="#id12">December</textPath></text><path d="M 89.34428304082924 81.90426304109057 l -4.7520016020637605 -8.069937607084674 a30.36511677493965,30.36511677493965 0 0,0 0.4514389605445089,-0.26063840539305566 l 4.612770173658852 8.150322909753903" fill="#ff6809" stroke="none" /><path d="M 89.97174638481275 81.54914285379989 l -5.240099044226622 -9.641192036721316 a31.97320472251581,31.97320472251581 0 0,0 0.48448720656430705,-0.2579621486450569 l 5.073823021875753 9.72972465308895" fill="#ff7e0b" stroke="none" /><path d="M 90.61103034731259 81.2157712731953 l -3.5013436292624625 -7.005032715637892 a28.831340278479413,28.831340278479413 0 0,0 0.44460638329636676,-0.2174792615802412 l 3.380576996704043 7.064105727315347" fill="#ff5207" stroke="none" /><path d="M 90.93487009805054 81.0573650232925 l -3.4984532791871055 -7.3104218215841925 a29.104408834464692,29.104408834464692 0 0,0 0.45251990288333754,-0.21180216361878465 l 3.3724446624322453 7.369400216773521" fill="#ff5608" stroke="none" /><path d="M 91.5904679813234 80.7573450057729 l -3.2511345622322447 -7.439232121585732 a29.118623682655453,29.118623682655453 0 0,0 0.4597482986895314,-0.19623921038684722 l 3.1229511883722822 7.493945981631983" fill="#ff5608" stroke="none" /><path d="M 92.25597844496254 80.48000691201159 l -2.879845331431875 -7.259091489415913 a28.809476191440787,28.809476191440787 0 0,0 0.461264047552127,-0.17842684267348788 l 2.7548090213862184 7.307458220227441" fill="#ff5207" stroke="none" /><path d="M 92.93061703081487 80.22567764915836 l -3.1917542037187308 -8.927904565943072 a30.481285505433497,30.481285505433497 0 0,0 0.4942238940594466,-0.17191672536133287 l 3.03802453761428 8.98137972387299" fill="#ff6a09" stroke="none" /><path d="M 93.61358852112211 79.99465700312896 l -3.0146034871019256 -9.443202486795261 a30.912714431025606,30.912714431025606 0 0,0 0.5069087036994493,-0.1570416121743176 l 2.85205415053086 9.49356068677622" fill="#ff700a" stroke="none" /><path d="M 94.6519064749342 79.69241777938228 l -4.3705306235298576 -16.595616656492204 a38.16146934677954,38.16146934677954 0 0,0 0.6349245425003218,-0.16139533585047344 l 4.085000787804157 16.66819722417794" fill="#ffd013" stroke="none" /><path d="M 95.35216902796891 79.52079915486377 l -2.0911509148773817 -9.213996774187725 a30.448314595923144,30.448314595923144 0 0,0 0.5107162262518473,-0.11130822446737952 l 1.9326722720064162 9.248536456788818" fill="#ff6909" stroke="none" /><path d="M 96.05791012581881 79.37332000966035 l -0.5736468434881007 -3.001562685212809 a24.055887637709507,24.055887637709507 0 0,0 0.40627560946164387,-0.07403694979653129 l 0.5220365004754184 3.0109678089407015" fill="#ff0d01" stroke="none" /><path d="M 96.41257539226777 79.30868818359171 l -4.0330336529221835 -23.26146637306834 a44.60849800963611,44.60849800963611 0 0,0 0.7556307760495137,-0.12433875664771499 l 3.6331253738195968 23.327271128211724" fill="#ddff1b" stroke="none" /><path d="M 97.84075906011542 79.11130261209362 l -0.8375179751171499 -8.102226674198493 a29.145398298348454,29.145398298348454 0 0,0 0.49810934164737547,-0.047171472536336675 l 0.6983090700847588 8.115409902240012" fill="#ff5708" stroke="none" /><path d="M 98.1996594967304 79.07731436759882 l -0.6686274883121448 -7.770464930234448 a28.799178671509587,28.799178671509587 0 0,0 0.4929198923594675,-0.03815511711189624 l 0.5351386011774601 7.780797814341398" fill="#ff5207" stroke="none" /><path d="M 99.27912038922189 79.0123766808444 l -0.5371804837507831 -15.639423669083914 a36.64864644540303,36.64864644540303 0 0,0 0.6289373445834195,-0.01619919500211885 l 0.2686298250966197 15.646340581436078" fill="#ffbd11" stroke="none" /><path d="M 99.63950707515114 79.00309439819443 l -1.081478774546572 -62.990716805416696 a84.0,84.0 0 0,0 1.4419716993954086,-0.012377592777739643 l 1.543054966925665e-14 63.0" fill="#4dd2ff" stroke="none" /></svg>